# xmcd
#
# Track frame offsets:
#	150
#	13932
#	29970
#	46323
#	62661
#	80476
#	96773
#	111569
#	127650
#	141961
#	157891
#	174860
#	190611
#	207054
#	219868
#	235612
#
# Disc length: 3344 seconds
#
# Revision: 1
# Processed by: cddbd v1.5.2PL0 Copyright (c) Steve Scherf et al.
# Submitted via: audiograbber 1.83.01
#
DISCID=d00d0e10
DTITLE=Various Artist - CDX 636
DYEAR=2016
DGENRE=Country
TTITLE0=Eric Paslay - Angels In This Town
TTITLE1=Darius Rucker - If I Told You
TTITLE2=Lauren Alaina - Road Less Traveled
TTITLE3=Cody Jinks -  I'm Not The Devil
TTITLE4=Kenny Davin Fine and The Tennessee Texans - The Ballad of the Tennessee T
TTITLE4=exans 
TTITLE5=Lucas Hodge - Boom Boom
TTITLE6=Tim Daley - Borrowed Angel
TTITLE7=The Springs - Dance With Me
TTITLE8=Kelsey Hickman - Gone
TTITLE9=Eileen Carey - In The Air
TTITLE10=Curtis Braly - Love You Down
TTITLE11=KayLyn - Show You Around 
TTITLE12=Matt Austin - The Island
TTITLE13=Dan Johnson And The Salt Cedar Rebels - This is How We Texas
TTITLE14=Smith and Wesley - You're The One
TTITLE15=Terra Bella - You've Got That Somethin'
EXTD=
EXTT0=
EXTT1=
EXTT2=
EXTT3=
EXTT4=
EXTT5=
EXTT6=
EXTT7=
EXTT8=
EXTT9=
EXTT10=
EXTT11=
EXTT12=
EXTT13=
EXTT14=
EXTT15=
PLAYORDER=
